<?xml version="1.0" encoding="UTF-8"?>
<!DOCTYPE svg PUBLIC "-//W3C//DTD SVG 1.1//EN" "http://www.w3.org/Graphics/SVG/1.1/DTD/svg11.dtd">
<svg xmlns="http://www.w3.org/2000/svg" version="1.1" width="282px" height="85px" style="shape-rendering:geometricPrecision; text-rendering:geometricPrecision; image-rendering:optimizeQuality; fill-rule:evenodd; clip-rule:evenodd" xmlns:xlink="http://www.w3.org/1999/xlink">
<g><path style="opacity:0.85" fill="#da202b" d="M 37.5,18.5 C 32.9443,20.4417 27.9443,21.1083 22.5,20.5C 22.5,24.5 22.5,28.5 22.5,32.5C 33.7866,28.7927 37.7866,32.4594 34.5,43.5C 34.1193,44.9311 33.1193,45.7645 31.5,46C 28.5184,46.498 25.5184,46.6646 22.5,46.5C 22.8257,54.6841 22.4924,62.6841 21.5,70.5C 21.1667,38.5 20.8333,38.5 20.5,70.5C 16.9277,70.9376 13.4277,71.6042 10,72.5C 9.50004,51.5026 9.33338,30.5026 9.5,9.5C 18.5062,9.33356 27.5062,9.50023 36.5,10C 36.6588,12.5633 36.3254,15.2299 35.5,18C 30.1667,18.3333 24.8333,18.6667 19.5,19C 25.582,19.7876 31.582,19.621 37.5,18.5 Z M 32.5,33.5 C 28.2201,34.5396 23.8868,34.7062 19.5,34C 23.3728,33.7297 27.2062,33.2297 31,32.5C 31.7648,32.5699 32.2648,32.9033 32.5,33.5 Z M 32.5,33.5 C 33.1174,33.6107 33.6174,33.944 34,34.5C 34.498,37.4816 34.6646,40.4816 34.5,43.5C 29.6887,45.4075 24.6887,45.9075 19.5,45C 23.8477,44.5355 28.181,44.0355 32.5,43.5C 32.5,40.1667 32.5,36.8333 32.5,33.5 Z"/></g>
<g><path style="opacity:0.81" fill="#da202b" d="M 37.5,18.5 C 37.3354,15.4816 37.502,12.4816 38,9.5C 38.8045,12.6965 38.6378,15.6965 37.5,18.5 Z"/></g>
<g><path style="opacity:0.815" fill="#da202b" d="M 61.5,11.5 C 61.4299,15.4248 62.0966,19.0915 63.5,22.5C 63.2053,24.7354 63.5386,26.7354 64.5,28.5C 64.4299,32.4248 65.0966,36.0915 66.5,39.5C 66.2053,41.7354 66.5386,43.7354 67.5,45.5C 67.9103,51.7944 68.9103,57.9611 70.5,64C 66.6429,65.2305 62.6429,66.0638 58.5,66.5C 62.2773,66.7719 66.2773,66.7719 70.5,66.5C 66.3766,67.872 62.0433,68.372 57.5,68C 55.9663,65.034 54.7996,61.8673 54,58.5C 49.2966,59.5483 47.2966,62.5483 48,67.5C 47.4806,68.5156 46.6473,69.1822 45.5,69.5C 41.5351,70.5299 37.5351,70.6965 33.5,70C 32.9032,68.9383 32.5698,67.7716 32.5,66.5C 35.2964,47.3873 38.6297,28.3873 42.5,9.5C 42.5523,11.5699 42.719,13.9032 43,16.5C 43.3108,14.444 43.8108,12.444 44.5,10.5C 50.4279,8.95845 56.0945,9.29178 61.5,11.5 Z M 41.5,22.5 C 40.7947,30.7323 39.4613,38.7323 37.5,46.5C 37.9889,38.2332 39.3222,30.2332 41.5,22.5 Z M 52.5,33.5 C 51.8333,35.5 51.1667,37.5 50.5,39.5C 50.5775,35.1234 51.0775,30.7901 52,26.5C 52.4966,28.8098 52.6633,31.1432 52.5,33.5 Z M 52.5,33.5 C 53.5946,37.6892 54.5946,42.0225 55.5,46.5C 53.2351,47.6474 50.9018,47.8141 48.5,47C 50.1341,46.5065 51.8008,46.3398 53.5,46.5C 53.0728,42.1756 52.7395,37.8422 52.5,33.5 Z M 36.5,52.5 C 36.2988,57.9065 35.6321,63.2399 34.5,68.5C 33.9033,68.2648 33.5699,67.7648 33.5,67C 34.279,61.9906 35.279,57.1573 36.5,52.5 Z M 47.5,59.5 C 47.3893,58.8826 47.056,58.3826 46.5,58C 50.0969,56.7235 53.7636,56.3901 57.5,57C 53.9957,57.3033 50.6624,58.1366 47.5,59.5 Z M 58.5,66.5 C 57.8826,66.3893 57.3826,66.056 57,65.5C 56.3333,63.1667 56.3333,60.8333 57,58.5C 57.567,61.1677 58.067,63.8344 58.5,66.5 Z M 47.5,59.5 C 47.7261,62.2492 47.3928,64.9159 46.5,67.5C 44.9547,68.4519 43.288,68.7852 41.5,68.5C 42.7175,67.8386 44.0508,67.1719 45.5,66.5C 46.0671,64.0177 46.7337,61.6843 47.5,59.5 Z"/></g>
<g><path style="opacity:0.408" fill="#da202b" d="M 61.5,11.5 C 61.3691,10.6236 61.7025,9.95689 62.5,9.5C 63.6578,12.4466 64.1578,15.4466 64,18.5C 63.0977,16.0731 62.2644,13.7397 61.5,11.5 Z"/></g>
<g><path style="opacity:0.455" fill="#da202b" d="M 67.5,45.5 C 67.7947,43.2646 67.4614,41.2646 66.5,39.5C 66.5701,35.5752 65.9034,31.9085 64.5,28.5C 64.7947,26.2646 64.4614,24.2646 63.5,22.5C 63.3505,21.448 63.5172,20.448 64,19.5C 66.2924,27.2924 67.9591,35.2924 69,43.5C 69.3333,32.1667 69.6667,20.8333 70,9.5C 70.6667,25.1667 70.6667,40.8333 70,56.5C 69.5812,52.6083 68.7479,48.9416 67.5,45.5 Z"/></g>
<g><path style="opacity:0.869" fill="#da202b" d="M 87.5,11.5 C 87.2627,12.791 87.596,13.791 88.5,14.5C 88.4095,17.1522 89.0762,19.4855 90.5,21.5C 90.2627,22.791 90.596,23.791 91.5,24.5C 91.838,26.854 92.338,29.1873 93,31.5C 93.4997,24.1742 93.6663,16.8409 93.5,9.5C 97.1667,9.5 100.833,9.5 104.5,9.5C 104.466,27.3752 104.466,45.0419 104.5,62.5C 100.438,63.0257 96.4375,63.359 92.5,63.5C 92.2041,61.597 91.5375,59.9303 90.5,58.5C 90.7373,57.209 90.404,56.209 89.5,55.5C 89.7678,53.901 89.4345,52.5676 88.5,51.5C 88.7373,50.209 88.404,49.209 87.5,48.5C 87.5905,45.8478 86.9238,43.5145 85.5,41.5C 85.7373,40.209 85.404,39.209 84.5,38.5C 84.477,36.0733 83.977,33.74 83,31.5C 82.8333,32.1667 82.6667,32.8333 82.5,33.5C 82.459,44.0366 82.7923,53.87 83.5,63C 79.6908,64.5882 75.6908,64.9216 71.5,64C 72.8333,46 72.8333,28 71.5,10C 77.1266,8.96667 82.4599,9.46667 87.5,11.5 Z M 88.5,14.5 C 89.9238,16.5145 90.5905,18.8478 90.5,21.5C 89.0762,19.4855 88.4095,17.1522 88.5,14.5 Z M 85.5,41.5 C 86.9238,43.5145 87.5905,45.8478 87.5,48.5C 86.0762,46.4855 85.4095,44.1522 85.5,41.5 Z M 90.5,58.5 C 91.5375,59.9303 92.2041,61.597 92.5,63.5C 90.7868,62.3646 90.1201,60.698 90.5,58.5 Z"/></g>
<g><path style="opacity:0.324" fill="#da202b" d="M 91.5,24.5 C 91.7373,23.209 91.404,22.209 90.5,21.5C 90.5905,18.8478 89.9238,16.5145 88.5,14.5C 88.7373,13.209 88.404,12.209 87.5,11.5C 87.3691,10.6236 87.7025,9.95689 88.5,9.5C 89.4853,11.772 90.3187,14.1053 91,16.5C 91.3333,14.1667 91.6667,11.8333 92,9.5C 92.8163,14.6842 92.6497,19.6842 91.5,24.5 Z"/></g>
<g><path style="opacity:0.777" fill="#da1f2b" d="M 137.5,17.5 C 133.285,19.4364 128.619,20.1031 123.5,19.5C 123.5,22.5 123.5,25.5 123.5,28.5C 126.518,28.3354 129.518,28.502 132.5,29C 133.756,29.4169 134.423,30.2502 134.5,31.5C 137.487,41.184 133.82,44.8506 123.5,42.5C 123.797,49.5581 123.464,56.5581 122.5,63.5C 117.042,65.8633 111.709,65.8633 106.5,63.5C 105.817,63.8627 105.15,64.1961 104.5,64.5C 104.5,63.8333 104.5,63.1667 104.5,62.5C 105.167,44.9954 105.833,27.3287 106.5,9.5C 107.333,27.1572 107.833,44.8239 108,62.5C 108.5,62 109,61.5 109.5,61C 108.774,43.9099 108.441,26.9099 108.5,10C 117.827,9.50021 127.161,9.33355 136.5,9.5C 136.194,12.3854 136.527,15.0521 137.5,17.5 Z M 134.5,31.5 C 134.806,34.3854 134.473,37.0521 133.5,39.5C 132.641,36.8998 132.308,34.3998 132.5,32C 128.5,31.6667 124.5,31.3333 120.5,31C 125.252,30.2266 129.919,30.3932 134.5,31.5 Z M 120.5,62.5 C 120.334,55.825 120.5,49.1583 121,42.5C 121.188,48.7482 121.688,54.9149 122.5,61C 121.956,61.7172 121.289,62.2172 120.5,62.5 Z M 120.5,62.5 C 117.305,63.236 113.971,63.9027 110.5,64.5C 109.893,64.3764 109.56,64.0431 109.5,63.5C 113.064,62.5773 116.731,62.244 120.5,62.5 Z"/></g>
<g><path style="opacity:0.241" fill="#da202b" d="M 137.5,9.5 C 138.622,11.2884 138.789,13.2884 138,15.5C 137.505,13.5273 137.338,11.5273 137.5,9.5 Z"/></g>
<g><path style="opacity:0.429" fill="#da202b" d="M 143.5,11.5 C 142.549,12.9187 142.216,14.5853 142.5,16.5C 141.097,19.9085 140.43,23.5752 140.5,27.5C 139.097,30.9085 138.43,34.5752 138.5,38.5C 137.409,42.4073 136.242,46.4073 135,50.5C 136.845,36.767 139.345,23.1004 142.5,9.5C 143.298,9.95689 143.631,10.6236 143.5,11.5 Z"/></g>
<g><path style="opacity:0.85" fill="#db202b" d="M 162.5,15.5 C 162.43,19.4248 163.097,23.0915 164.5,26.5C 164.216,28.4147 164.549,30.0813 165.5,31.5C 165.43,35.4248 166.097,39.0915 167.5,42.5C 167.205,44.7354 167.539,46.7354 168.5,48.5C 168.735,53.241 169.402,57.9077 170.5,62.5C 169.833,62.5 169.5,62.8333 169.5,63.5C 169.167,63.5 168.833,63.5 168.5,63.5C 165.375,62.5206 162.042,62.1872 158.5,62.5C 157.841,59.5448 157.508,56.5448 157.5,53.5C 153.818,53.3347 150.152,53.5014 146.5,54C 146.737,56.2884 146.737,58.7884 146.5,61.5C 142.6,62.4299 138.6,62.7633 134.5,62.5C 134.5,61.8333 134.5,61.1667 134.5,60.5C 136.462,53.4041 137.796,46.0707 138.5,38.5C 139.903,35.0915 140.57,31.4248 140.5,27.5C 141.903,24.0915 142.57,20.4248 142.5,16.5C 143.289,16.2172 143.956,15.7172 144.5,15C 143.663,13.9887 143.33,12.8221 143.5,11.5C 148.905,9.29178 154.572,8.95845 160.5,10.5C 161.028,12.3361 161.694,14.0028 162.5,15.5 Z M 153.5,36.5 C 151.933,33.0834 151.433,29.4168 152,25.5C 152.936,29.1135 153.436,32.7802 153.5,36.5 Z M 150.5,32.5 C 151.595,35.7167 151.429,39.05 150,42.5C 149.828,39.1745 149.995,35.8411 150.5,32.5 Z"/></g>
<g><path style="opacity:0.496" fill="#da202b" d="M 168.5,48.5 C 168.795,46.2646 168.461,44.2646 167.5,42.5C 167.57,38.5752 166.903,34.9085 165.5,31.5C 165.784,29.5853 165.451,27.9187 164.5,26.5C 164.57,22.5752 163.903,18.9085 162.5,15.5C 162.739,13.5328 162.406,11.6995 161.5,10C 162.6,9.56833 163.267,10.0683 163.5,11.5C 165.397,21.1534 167.231,30.8201 169,40.5C 169.168,30.1506 169.668,19.8173 170.5,9.5C 171.666,26.1567 171.833,42.8233 171,59.5C 170.581,55.6083 169.748,51.9416 168.5,48.5 Z"/></g>
<g><path style="opacity:0.866" fill="#da202b" d="M 189.5,17.5 C 189.263,18.791 189.596,19.791 190.5,20.5C 190.723,24.1621 191.723,27.4954 193.5,30.5C 193.341,23.6153 193.341,16.782 193.5,10C 197.152,9.50137 200.818,9.3347 204.5,9.5C 204.5,27.8333 204.5,46.1667 204.5,64.5C 200.833,64.5 197.167,64.5 193.5,64.5C 193.5,63.8333 193.167,63.5 192.5,63.5C 192.672,62.5084 192.338,61.8417 191.5,61.5C 191.737,60.209 191.404,59.209 190.5,58.5C 190.768,56.901 190.434,55.5676 189.5,54.5C 189.59,51.8478 188.924,49.5145 187.5,47.5C 187.737,46.209 187.404,45.209 186.5,44.5C 186.768,42.901 186.434,41.5676 185.5,40.5C 185.279,37.9327 184.612,35.5994 183.5,33.5C 183.447,43.2097 183.447,52.7097 183.5,62C 180.362,63.2444 177.028,63.911 173.5,64C 176.817,64.4983 180.15,64.665 183.5,64.5C 178.965,65.744 174.298,65.744 169.5,64.5C 169.5,64.1667 169.5,63.8333 169.5,63.5C 170.167,63.5 170.5,63.1667 170.5,62.5C 172.176,53.3102 173.176,43.8102 173.5,34C 172.518,25.919 172.184,17.7524 172.5,9.5C 177.214,9.17338 181.88,9.50671 186.5,10.5C 187.33,13.0164 188.33,15.3498 189.5,17.5 Z M 193.5,30.5 C 194.598,31.6009 194.765,32.9343 194,34.5C 192.666,33.1221 192.499,31.7887 193.5,30.5 Z M 183.5,33.5 C 184.612,35.5994 185.279,37.9327 185.5,40.5C 184.761,47.8187 184.427,55.4853 184.5,63.5C 183.833,63.5 183.5,63.8333 183.5,64.5C 180.15,64.665 176.817,64.4983 173.5,64C 177.028,63.911 180.362,63.2444 183.5,62C 183.447,52.7097 183.447,43.2097 183.5,33.5 Z M 187.5,47.5 C 188.924,49.5145 189.59,51.8478 189.5,54.5C 188.076,52.4855 187.41,50.1522 187.5,47.5 Z"/></g>
<g><path style="opacity:0.557" fill="#da202b" d="M 190.5,20.5 C 190.737,19.209 190.404,18.209 189.5,17.5C 189.534,14.8015 188.867,12.3015 187.5,10C 188.483,9.40921 189.15,9.74254 189.5,11C 190.925,16.5798 191.759,16.0798 192,9.5C 192.667,14.1667 192.667,18.8333 192,23.5C 191.768,22.2625 191.268,21.2625 190.5,20.5 Z"/></g>
<g><path style="opacity:0.829" fill="#db202b" d="M 250.5,14.5 C 250.586,15.4959 250.252,16.3292 249.5,17C 250.665,20.5566 251.665,24.0566 252.5,27.5C 252.532,32.3907 253.199,37.0574 254.5,41.5C 254.336,44.1873 254.503,46.854 255,49.5C 256.682,40.8941 257.849,32.2274 258.5,23.5C 259.595,19.3108 260.595,14.9775 261.5,10.5C 264.768,9.51298 268.102,9.17964 271.5,9.5C 268.942,29.8465 266.276,50.1798 263.5,70.5C 266.309,55.6927 268.809,40.6927 271,25.5C 269.941,40.9165 267.941,56.2498 265,71.5C 264.261,72.5742 263.261,73.2409 262,73.5C 256.87,72.4813 251.703,71.648 246.5,71C 245.299,70.0975 244.465,68.9308 244,67.5C 241.638,51.7982 239.138,36.1316 236.5,20.5C 234.5,20.5 232.5,20.5 230.5,20.5C 230.667,36.1702 230.5,51.8369 230,67.5C 225.921,68.6295 221.755,68.7961 217.5,68C 215.881,67.7645 214.881,66.9311 214.5,65.5C 219.179,67.4694 223.845,67.8027 228.5,66.5C 224.466,66.4955 220.466,66.1621 216.5,65.5C 216.5,49.8333 216.5,34.1667 216.5,18.5C 213.5,18.5 210.5,18.5 207.5,18.5C 207.5,17.8333 207.167,17.5 206.5,17.5C 206.5,14.8333 206.5,12.1667 206.5,9.5C 220.833,9.5 235.167,9.5 249.5,9.5C 249.216,11.4147 249.549,13.0813 250.5,14.5 Z M 240.5,33.5 C 239.405,29.3108 238.405,24.9775 237.5,20.5C 224.232,19.1765 224.232,18.5099 237.5,18.5C 237.21,14.446 237.877,13.946 239.5,17C 238.978,17.5613 238.645,18.228 238.5,19C 239.764,23.7522 240.431,28.5855 240.5,33.5 Z M 250.5,14.5 C 251.895,18.5909 252.562,22.9242 252.5,27.5C 251.665,24.0566 250.665,20.5566 249.5,17C 250.252,16.3292 250.586,15.4959 250.5,14.5 Z M 228.5,66.5 C 228.717,51.9412 228.383,37.4412 227.5,23C 228.126,22.2496 228.626,21.4162 229,20.5C 229.828,36.0055 229.661,51.3389 228.5,66.5 Z M 258.5,23.5 C 257.849,32.2274 256.682,40.8941 255,49.5C 254.503,46.854 254.336,44.1873 254.5,41.5C 255.926,35.5189 257.259,29.5189 258.5,23.5 Z M 252.5,27.5 C 253.972,31.9192 254.638,36.5859 254.5,41.5C 253.199,37.0574 252.532,32.3907 252.5,27.5 Z M 240.5,33.5 C 242.322,39.5737 243.322,45.907 243.5,52.5C 241.764,46.4112 240.764,40.0779 240.5,33.5 Z M 243.5,52.5 C 244.859,57.6419 245.859,62.9753 246.5,68.5C 245.778,68.0825 245.278,67.4158 245,66.5C 244.171,61.8627 243.671,57.196 243.5,52.5 Z M 247.5,69.5 C 252.845,69.6865 258.178,70.0199 263.5,70.5C 258.126,71.4975 252.792,71.1641 247.5,69.5 Z"/></g>
<g><path style="opacity:0.451" fill="#da202b" d="M 258.5,23.5 C 257.259,29.5189 255.926,35.5189 254.5,41.5C 254.638,36.5859 253.972,31.9192 252.5,27.5C 252.562,22.9242 251.895,18.5909 250.5,14.5C 250.34,12.8008 250.506,11.1341 251,9.5C 252.797,17.0755 254.13,24.7422 255,32.5C 256.426,24.8527 257.759,17.1861 259,9.5C 259.169,14.1609 259.003,18.8276 258.5,23.5 Z"/></g>
<g><path style="opacity:0.486" fill="#da202b" d="M 137.5,16.5 C 138.833,17.1667 138.833,17.1667 137.5,16.5 Z"/></g>
<g><path style="opacity:0.333" fill="#da202b" d="M 206.5,17.5 C 207.167,17.5 207.5,17.8333 207.5,18.5C 209.948,19.4731 212.615,19.8064 215.5,19.5C 215.802,34.8813 215.469,50.2146 214.5,65.5C 213.504,50.676 213.171,35.676 213.5,20.5C 211.167,20.5 208.833,20.5 206.5,20.5C 206.667,35.5037 206.5,50.5037 206,65.5C 201.587,66.6324 197.087,66.7991 192.5,66C 191.667,65.1667 190.833,64.3333 190,63.5C 188.667,58.8333 187.333,54.1667 186,49.5C 185.826,54.3514 185.326,59.0181 184.5,63.5C 184.427,55.4853 184.761,47.8187 185.5,40.5C 185.232,42.099 185.566,43.4324 186.5,44.5C 186.263,45.791 186.596,46.791 187.5,47.5C 187.41,50.1522 188.076,52.4855 189.5,54.5C 189.232,56.099 189.566,57.4324 190.5,58.5C 190.263,59.791 190.596,60.791 191.5,61.5C 191.328,62.4916 191.662,63.1583 192.5,63.5C 193.167,63.5 193.5,63.8333 193.5,64.5C 197.167,65.8333 200.833,65.8333 204.5,64.5C 205.167,48.8333 205.833,33.1667 206.5,17.5 Z M 187.5,47.5 C 188.924,49.5145 189.59,51.8478 189.5,54.5C 188.076,52.4855 187.41,50.1522 187.5,47.5 Z"/></g>
<g><path style="opacity:0.537" fill="#da202b" d="M 84.5,38.5 C 84.631,39.2389 84.4643,39.9056 84,40.5C 83.3083,39.5632 83.475,38.8966 84.5,38.5 Z"/></g>
<g><path style="opacity:0.562" fill="#da202b" d="M 85.5,41.5 C 85.4095,44.1522 86.0762,46.4855 87.5,48.5C 87.2627,49.791 87.596,50.791 88.5,51.5C 88.2322,53.099 88.5655,54.4324 89.5,55.5C 89.2627,56.791 89.596,57.791 90.5,58.5C 90.1201,60.698 90.7868,62.3646 92.5,63.5C 96.2984,64.4834 100.298,64.8168 104.5,64.5C 99.9848,65.8124 95.3181,65.8124 90.5,64.5C 89.001,59.839 87.501,55.1724 86,50.5C 85.8255,55.3514 85.3255,60.0181 84.5,64.5C 84.1746,56.6484 84.508,48.9818 85.5,41.5 Z"/></g>
<g><path style="opacity:0.461" fill="#da202b" d="M 134.5,60.5 C 133.662,60.8417 133.328,61.5084 133.5,62.5C 132.713,58.8667 133.213,55.2001 135,51.5C 135.167,52 135.333,52.5 135.5,53C 134.678,55.4339 134.344,57.9339 134.5,60.5 Z"/></g>
<g><path style="opacity:0.4" fill="#da202b" d="M 133.5,62.5 C 133.833,62.5 134.167,62.5 134.5,62.5C 136.304,63.162 138.304,63.4954 140.5,63.5C 142.952,63.4609 144.952,62.7943 146.5,61.5C 147.283,59.6568 147.95,57.6568 148.5,55.5C 151.086,54.52 153.753,54.1866 156.5,54.5C 156.649,55.552 156.483,56.552 156,57.5C 154.211,55.771 152.044,55.1043 149.5,55.5C 149.149,58.2377 148.482,60.9044 147.5,63.5C 145.167,63.8333 142.833,64.1667 140.5,64.5C 137.731,64.4714 135.397,63.8048 133.5,62.5 Z"/></g>
<g><path style="opacity:0.442" fill="#da202b" d="M 158.5,62.5 C 161.625,63.4794 164.958,63.8128 168.5,63.5C 168.5,64.1667 168.833,64.5 169.5,64.5C 168.903,65.1386 168.07,65.472 167,65.5C 163.849,64.9069 160.682,64.4069 157.5,64C 155.964,62.4006 155.464,60.5672 156,58.5C 156.608,60.0664 157.442,61.3998 158.5,62.5 Z"/></g>
<g><path style="opacity:0.367" fill="#da202b" d="M 70.5,59.5 C 71.5735,60.2506 71.7401,61.2506 71,62.5C 70.5172,61.552 70.3505,60.552 70.5,59.5 Z"/></g>
<g><path style="opacity:0.549" fill="#da202b" d="M 84.5,64.5 C 83.8333,65.1667 83.8333,65.1667 84.5,64.5 Z"/></g>
<g><path style="opacity:0.456" fill="#da202b" d="M 70.5,66.5 C 74.4964,65.8439 78.8297,65.5105 83.5,65.5C 79.2984,67.0502 74.965,67.3836 70.5,66.5 Z"/></g>
<g><path style="opacity:0.508" fill="#da202b" d="M 20.5,70.5 C 20.8333,70.5 21.1667,70.5 21.5,70.5C 21.4226,71.7498 20.756,72.5831 19.5,73C 16.1663,73.7808 12.833,74.1141 9.5,74C 10.1667,73.6667 10.8333,73.3333 11.5,73C 14.8511,72.9428 17.8511,72.1094 20.5,70.5 Z"/></g>
</svg>
